<?xml version="1.0" encoding="UTF-8" standalone="no"?>
<!-- Created with Inkscape (http://www.inkscape.org/) -->

<svg
   version="1.1"
   id="svg2276"
   width="274.60574mm"
   height="274.60574mm"
   viewBox="0 0 1037.88 1037.88"
   sodipodi:docname="utah-teapot.jpeg.svg"
   inkscape:version="1.1.2 (b8e25be8, 2022-02-05)"
   xmlns:inkscape="http://www.inkscape.org/namespaces/inkscape"
   xmlns:sodipodi="http://sodipodi.sourceforge.net/DTD/sodipodi-0.dtd"
   xmlns="http://www.w3.org/2000/svg"
   xmlns:svg="http://www.w3.org/2000/svg">
  <defs
     id="defs2280" />
  <sodipodi:namedview
     id="namedview2278"
     pagecolor="#505050"
     bordercolor="#ffffff"
     borderopacity="1"
     inkscape:pageshadow="0"
     inkscape:pageopacity="0"
     inkscape:pagecheckerboard="1"
     showgrid="false"
     inkscape:zoom="0.55885079"
     inkscape:cx="544.86816"
     inkscape:cy="702.33416"
     inkscape:window-width="1440"
     inkscape:window-height="819"
     inkscape:window-x="0"
     inkscape:window-y="25"
     inkscape:window-maximized="0"
     inkscape:current-layer="g2282"
     units="mm"
     fit-margin-top="0"
     fit-margin-left="0"
     fit-margin-right="0"
     fit-margin-bottom="0"
     inkscape:document-units="mm" />
  <g
     inkscape:groupmode="layer"
     inkscape:label="Image"
     id="g2282">
    <path
       style="color:#000000;fill:#000000;stroke-linecap:round;stroke-linejoin:round;-inkscape-stroke:none"
       d="m 478.81055,252.39258 c -5.30064,-0.26858 -9.81538,3.8107 -10.08399,9.11133 -0.26857,5.30063 3.8107,9.81537 9.11133,10.08398 0,0 24.06461,1.41165 40.85156,6.60742 8.39348,2.59789 13.77545,6.92564 14.00391,7.41016 0.11423,0.24226 0.40022,-0.39319 -0.39453,1.21289 -0.79475,1.60608 -3.33578,4.87336 -8.48828,8.88086 -12.35812,9.61187 -19.62524,17.40679 -22.88477,26.14844 -1.62977,4.37082 -2.00825,9.27935 -0.59961,13.65039 1.40864,4.37103 4.35832,7.74784 7.5,10.06054 6.28336,4.62541 13.55296,6.22281 20.82227,7.10938 7.26931,0.88657 14.53952,0.77341 20.66015,0.008 2.44633,-0.306 14.62585,-0.12181 28.83203,0.86914 14.20619,0.99095 31.40153,2.56613 47.75782,4.27344 18.15156,0.73206 51.12864,6.69704 58.65234,8.29101 0,0 26.76143,3.70558 34.9082,25.23633 3.04751,8.05414 10.61418,23.84908 20.35547,45.5293 9.7413,21.68022 21.46923,48.68402 32.05078,76.875 10.58156,28.19098 20.0046,57.59418 25.16797,83.77148 5.16338,26.17731 5.69339,49.1093 0.48438,63.40235 -9.6277,26.41752 -26.1659,43.76847 -41.60938,56.30078 -7.72174,6.26615 -15.12935,11.26239 -21.32617,15.61523 -6.19682,4.35285 -11.28272,7.10227 -15.03906,13.65625 -6.13339,10.70137 -3.14588,15.69789 -18.48047,23.26368 -1.39817,0.68982 -8.74277,3.48871 -19.75195,6.53125 -11.00919,3.04253 -26.17132,6.62785 -45.23047,10.0664 -38.1183,6.87711 -91.83709,13.17737 -159.46875,13.54492 -5.30777,0.0283 -9.58746,4.35435 -9.5586,9.66211 0.0283,5.30777 4.35435,9.58746 9.66211,9.5586 68.76955,-0.37374 123.57318,-6.77854 162.77735,-13.85157 19.60208,-3.53651 35.30087,-7.2386 46.93945,-10.45507 11.63858,-3.21648 18.72782,-5.64602 23.13477,-7.82032 20.82011,-10.27223 24.41524,-27.03817 26.65234,-30.9414 -0.37284,0.65052 3.46937,-3.31196 9.41211,-7.48633 5.94274,-4.17438 13.88552,-9.51966 22.38867,-16.41992 17.00631,-13.80054 36.41751,-34.07784 47.55664,-64.64258 7.42182,-20.36479 5.80303,-45.86723 0.3125,-73.70313 -5.49053,-27.8359 -15.22537,-58.02322 -26.0293,-86.80664 -10.80392,-28.78341 -22.69106,-56.13685 -32.51367,-77.99804 -9.8226,-21.86119 -17.76849,-38.79301 -19.91015,-44.45313 -9.34568,-21.75685 -30.74582,-34.20943 -52.88282,-38.59961 -3.18062,-0.63464 -7.62518,-1.32387 -13.23828,-2.10351 -11.22619,-1.55929 -26.89708,-3.41378 -43.42187,-5.13868 -16.5248,-1.72489 -33.87305,-3.31772 -48.41406,-4.33203 -14.54102,-1.0143 -25.3118,-1.67379 -32.55665,-0.76757 -4.38093,0.54798 -10.49945,0.65074 -15.94726,-0.0137 -5.44781,-0.66441 -10.22377,-2.38337 -11.75391,-3.50976 -0.76507,-0.5632 -0.66421,-0.67291 -0.60156,-0.47852 0.0626,0.1944 -0.15848,0.23453 0.31641,-1.03906 0.94978,-2.54718 5.6826,-9.14312 16.67578,-17.69336 6.52315,-5.07356 11.13387,-9.90894 13.91406,-15.52734 2.7802,-5.6184 3.06481,-12.60182 0.55078,-17.9336 -5.02806,-10.66355 -15.41226,-14.38907 -25.70312,-17.57422 -20.58172,-6.37029 -45.5625,-7.4414 -45.5625,-7.4414 z"
       id="path7151"
       sodipodi:nodetypes="cscssssssssssccsssssssssssccsssscssssssccsssssssssssscc" />
  </g>
</svg>
