<?xml version="1.0" encoding="UTF-8" standalone="no"?>
<!-- Created with Inkscape (http://www.inkscape.org/) -->

<svg
   width="0.50480342in"
   height="0.30295151in"
   viewBox="0 0 12.822007 7.6949685"
   version="1.1"
   id="svg981"
   inkscape:version="1.1.2 (b8e25be8, 2022-02-05)"
   sodipodi:docname="ok.svg"
   xmlns:inkscape="http://www.inkscape.org/namespaces/inkscape"
   xmlns:sodipodi="http://sodipodi.sourceforge.net/DTD/sodipodi-0.dtd"
   xmlns="http://www.w3.org/2000/svg"
   xmlns:svg="http://www.w3.org/2000/svg">
  <sodipodi:namedview
     id="namedview983"
     pagecolor="#505050"
     bordercolor="#ffffff"
     borderopacity="1"
     inkscape:pageshadow="0"
     inkscape:pageopacity="0"
     inkscape:pagecheckerboard="1"
     inkscape:document-units="in"
     showgrid="false"
     units="in"
     fit-margin-top="0"
     fit-margin-left="0"
     fit-margin-right="0"
     fit-margin-bottom="0"
     inkscape:zoom="0.64109848"
     inkscape:cx="-209.79616"
     inkscape:cy="163.00148"
     inkscape:window-width="1440"
     inkscape:window-height="819"
     inkscape:window-x="0"
     inkscape:window-y="25"
     inkscape:window-maximized="0"
     inkscape:current-layer="layer1" />
  <defs
     id="defs978" />
  <g
     inkscape:label="Layer 1"
     inkscape:groupmode="layer"
     id="layer1"
     transform="translate(-163.62268,-96.439371)">
    <g
       id="use10727"
       style="fill:#000000;fill-opacity:1"
       transform="matrix(0.35277777,0,0,0.35277777,162.76278,104.13434)">
      <path
         style="stroke:none"
         d="m 7.390625,0 h 4.625 c 0.65625,0 1.273437,-0.128906 1.859375,-0.390625 0.59375,-0.257813 1.117188,-0.617187 1.578125,-1.078125 0.457031,-0.457031 0.820313,-0.976562 1.09375,-1.5625 0.269531,-0.59375 0.40625,-1.222656 0.40625,-1.890625 v -11.96875 c 0,-0.625 -0.132813,-1.226563 -0.390625,-1.8125 -0.261719,-0.59375 -0.617188,-1.117187 -1.0625,-1.578125 -0.449219,-0.457031 -0.976562,-0.828125 -1.578125,-1.109375 -0.59375,-0.28125 -1.230469,-0.421875 -1.90625,-0.421875 h -4.625 c -0.679687,0 -1.320313,0.140625 -1.921875,0.421875 -0.605469,0.28125 -1.132812,0.652344 -1.578125,1.109375 -0.4375,0.460938 -0.792969,0.984375 -1.0625,1.578125 -0.261719,0.585937 -0.390625,1.1875 -0.390625,1.8125 v 11.96875 c 0,0.667969 0.132812,1.296875 0.40625,1.890625 0.269531,0.585938 0.632812,1.105469 1.09375,1.5625 C 4.394531,-1.007812 4.914062,-0.648438 5.5,-0.390625 6.09375,-0.128906 6.722656,0 7.390625,0 Z M 12.125,-2.4375 H 7.265625 V -19.390625 H 12.125 Z m 0,0"
         id="path11456" />
    </g>
    <g
       style="fill:#000000;fill-opacity:1"
       id="g10733"
       transform="matrix(0.35277777,0,0,0.35277777,30.317775,13.463634)">
      <g
         id="use10731"
         transform="translate(394.82739,257.01932)">
        <path
           style="stroke:none"
           d="m 14.53125,-21.8125 -7.265625,7.328125 V -21.8125 H 2.4375 V 0 H 7.265625 V -7.359375 L 14.53125,0 h 4.859375 L 8.375,-11.375 19.390625,-21.8125 Z m 0,0"
           id="path11452" />
      </g>
    </g>
  </g>
</svg>
