<?xml version="1.0" encoding="UTF-8" standalone="no"?>
<!--
  for (let path of document.querySelectorAll(`#g843 path:not([style="fill:#40434a;fill-opacity:1;fill-rule:nonzero;stroke:none"])`)) {
  if (path.children.length === 0) path.remove();
}
 -->
<svg xmlns:inkscape="http://www.inkscape.org/namespaces/inkscape" xmlns:sodipodi="http://sodipodi.sourceforge.net/DTD/sodipodi-0.dtd" xmlns="http://www.w3.org/2000/svg" xmlns:svg="http://www.w3.org/2000/svg" version="1.1" id="svg821" xml:space="preserve" width="133.33333" height="133.33333" viewBox="0 0 133.33333 133.33333" sodipodi:docname="keyboard.svg" inkscape:version="1.1.2 (b8e25be8, 2022-02-05)">
  <defs id="defs825">
    <clipPath clipPathUnits="userSpaceOnUse" id="clipPath837">
      <path d="M 0.06,0 H 100 V 99.96 H 0.06 Z" id="path835" />
    </clipPath>
    <clipPath clipPathUnits="userSpaceOnUse" id="clipPath847">
      <path d="M 0,0 H 100 V 100 H 0 Z" id="path845" />
    </clipPath>
    <clipPath clipPathUnits="userSpaceOnUse" id="clipPath1675">
      <path d="m 87.502,37.122 c 0,0.264 -0.219,0.478 -0.487,0.478 h -4.226 c -0.268,0 -0.487,-0.214 -0.487,-0.478 V 35.2 h 5.2 v 1.922" id="path1673" />
    </clipPath>
    <linearGradient x1="0" y1="0" x2="1" y2="0" gradientUnits="userSpaceOnUse" gradientTransform="matrix(0,-2.3786,-2.3786,0,84.9019,37.5755)" spreadMethod="pad" id="linearGradient1689">
      <stop style="stop-opacity:1;stop-color:#ffffff" offset="0" id="stop1685" />
      <stop style="stop-opacity:1;stop-color:#bfbfbf" offset="1" id="stop1687" />
    </linearGradient>
    <clipPath clipPathUnits="userSpaceOnUse" id="clipPath1699">
      <path d="m 82.302,35.1 v -1.972 c 0,-0.264 0.219,-0.478 0.487,-0.478 h 4.226 c 0.268,0 0.487,0.214 0.487,0.478 V 35.1 h -5.2" id="path1697" />
    </clipPath>
    <linearGradient x1="0" y1="0" x2="1" y2="0" gradientUnits="userSpaceOnUse" gradientTransform="matrix(0,-2.4152,-2.4152,0,84.9019,35.0755)" spreadMethod="pad" id="linearGradient1713">
      <stop style="stop-opacity:1;stop-color:#bfbfbf" offset="0" id="stop1709" />
      <stop style="stop-opacity:1;stop-color:#ffffff" offset="1" id="stop1711" />
    </linearGradient>
  </defs>
  <sodipodi:namedview id="namedview823" pagecolor="#505050" bordercolor="#ffffff" borderopacity="1" inkscape:pageshadow="0" inkscape:pageopacity="0" inkscape:pagecheckerboard="1" showgrid="false" inkscape:zoom="1.7700001" inkscape:cx="66.384178" inkscape:cy="66.384178" inkscape:window-width="1440" inkscape:window-height="819" inkscape:window-x="0" inkscape:window-y="25" inkscape:window-maximized="1" inkscape:current-layer="g827" />
  <g id="g827" inkscape:groupmode="layer" inkscape:label="keyboard" transform="matrix(1.3333333,0,0,-1.3333333,0,133.33333)">
    <g id="g841">
      <g id="g843" clip-path="url(#clipPath847)">
        <path d="m 22.059,50.31 c -0.324,0 -0.588,0.264 -0.588,0.587 v 3.976 c 0,0.323 0.264,0.587 0.588,0.587 h 4.225 c 0.323,0 0.587,-0.264 0.587,-0.587 v -3.976 c 0,-0.323 -0.264,-0.587 -0.587,-0.587 h -4.225" style="fill:#40434a;fill-opacity:1;fill-rule:nonzero;stroke:none" id="path1363" />
        <path d="m 28.132,50.31 c -0.324,0 -0.588,0.264 -0.588,0.587 v 3.976 c 0,0.323 0.264,0.587 0.588,0.587 h 4.225 c 0.324,0 0.587,-0.264 0.587,-0.587 v -3.976 c 0,-0.323 -0.263,-0.587 -0.587,-0.587 h -4.225" style="fill:#40434a;fill-opacity:1;fill-rule:nonzero;stroke:none" id="path1367" />
        <path d="m 34.205,50.31 c -0.324,0 -0.588,0.264 -0.588,0.587 v 3.976 c 0,0.323 0.264,0.587 0.588,0.587 h 4.225 c 0.324,0 0.587,-0.264 0.587,-0.587 v -3.976 c 0,-0.323 -0.263,-0.587 -0.587,-0.587 h -4.225" style="fill:#40434a;fill-opacity:1;fill-rule:nonzero;stroke:none" id="path1371" />
        <path d="m 40.278,50.31 c -0.324,0 -0.588,0.264 -0.588,0.587 v 3.976 c 0,0.323 0.264,0.587 0.588,0.587 h 4.225 c 0.324,0 0.587,-0.264 0.587,-0.587 v -3.976 c 0,-0.323 -0.263,-0.587 -0.587,-0.587 h -4.225" style="fill:#40434a;fill-opacity:1;fill-rule:nonzero;stroke:none" id="path1375" />
        <path d="m 46.351,50.31 c -0.324,0 -0.587,0.264 -0.587,0.587 v 3.976 c 0,0.323 0.263,0.587 0.587,0.587 h 4.225 c 0.324,0 0.587,-0.264 0.587,-0.587 v -3.976 c 0,-0.323 -0.263,-0.587 -0.587,-0.587 h -4.225" style="fill:#40434a;fill-opacity:1;fill-rule:nonzero;stroke:none" id="path1379" />
        <path d="m 52.424,50.31 c -0.324,0 -0.587,0.264 -0.587,0.587 v 3.976 c 0,0.323 0.263,0.587 0.587,0.587 h 4.225 c 0.324,0 0.587,-0.264 0.587,-0.587 v -3.976 c 0,-0.323 -0.263,-0.587 -0.587,-0.587 h -4.225" style="fill:#40434a;fill-opacity:1;fill-rule:nonzero;stroke:none" id="path1383" />
        <path d="m 58.497,50.31 c -0.324,0 -0.588,0.264 -0.588,0.587 v 3.976 c 0,0.323 0.264,0.587 0.588,0.587 h 4.225 c 0.324,0 0.588,-0.264 0.588,-0.587 v -3.976 c 0,-0.323 -0.264,-0.587 -0.588,-0.587 h -4.225" style="fill:#40434a;fill-opacity:1;fill-rule:nonzero;stroke:none" id="path1387" />
        <path d="m 64.57,50.31 c -0.324,0 -0.588,0.264 -0.588,0.587 v 3.976 c 0,0.323 0.264,0.587 0.588,0.587 h 4.225 c 0.324,0 0.588,-0.264 0.588,-0.587 v -3.976 c 0,-0.323 -0.264,-0.587 -0.588,-0.587 H 64.57" style="fill:#40434a;fill-opacity:1;fill-rule:nonzero;stroke:none" id="path1391" />
        <path d="m 70.644,50.31 c -0.325,0 -0.588,0.264 -0.588,0.587 v 3.976 c 0,0.323 0.263,0.587 0.588,0.587 h 4.224 c 0.324,0 0.588,-0.264 0.588,-0.587 v -3.976 c 0,-0.323 -0.264,-0.587 -0.588,-0.587 h -4.224" style="fill:#40434a;fill-opacity:1;fill-rule:nonzero;stroke:none" id="path1395" />
        <path d="m 76.717,50.31 c -0.324,0 -0.588,0.264 -0.588,0.587 v 3.976 c 0,0.323 0.264,0.587 0.588,0.587 h 4.224 c 0.325,0 0.588,-0.264 0.588,-0.587 v -3.976 c 0,-0.323 -0.263,-0.587 -0.588,-0.587 h -4.224" style="fill:#40434a;fill-opacity:1;fill-rule:nonzero;stroke:none" id="path1399" />
        <path d="m 82.789,50.31 c -0.323,0 -0.587,0.264 -0.587,0.587 v 3.976 c 0,0.323 0.264,0.587 0.587,0.587 h 4.226 c 0.323,0 0.587,-0.264 0.587,-0.587 v -3.976 c 0,-0.323 -0.264,-0.587 -0.587,-0.587 h -4.226" style="fill:#40434a;fill-opacity:1;fill-rule:nonzero;stroke:none" id="path1403" />
        <path d="m 88.862,50.31 c -0.324,0 -0.587,0.264 -0.587,0.587 v 3.976 c 0,0.323 0.263,0.587 0.587,0.587 h 4.226 c 0.323,0 0.587,-0.264 0.587,-0.587 v -3.976 c 0,-0.323 -0.264,-0.587 -0.587,-0.587 h -4.226" style="fill:#40434a;fill-opacity:1;fill-rule:nonzero;stroke:none" id="path1407" />
        <path d="m 15.985,50.31 c -0.323,0 -0.587,0.264 -0.587,0.587 v 3.976 c 0,0.323 0.264,0.587 0.587,0.587 h 4.225 c 0.325,0 0.588,-0.264 0.588,-0.587 v -3.976 c 0,-0.323 -0.263,-0.587 -0.588,-0.587 h -4.225" style="fill:#40434a;fill-opacity:1;fill-rule:nonzero;stroke:none" id="path1411" />
        <path d="m 6.862,50.31 c -0.323,0 -0.587,0.264 -0.587,0.587 v 3.976 c 0,0.323 0.264,0.587 0.587,0.587 h 7.276 c 0.323,0 0.587,-0.264 0.587,-0.587 v -3.976 c 0,-0.323 -0.264,-0.587 -0.587,-0.587 H 6.862" style="fill:#40434a;fill-opacity:1;fill-rule:nonzero;stroke:none" id="path1415" />
        <path d="m 22.059,62.15 c -0.324,0 -0.588,0.264 -0.588,0.587 v 3.975 c 0,0.325 0.264,0.588 0.588,0.588 h 4.225 c 0.323,0 0.587,-0.263 0.587,-0.588 v -3.975 c 0,-0.323 -0.264,-0.587 -0.587,-0.587 h -4.225" style="fill:#40434a;fill-opacity:1;fill-rule:nonzero;stroke:none" id="path1419" />
        <path d="m 28.132,62.15 c -0.324,0 -0.588,0.264 -0.588,0.587 v 3.975 c 0,0.325 0.264,0.588 0.588,0.588 h 4.225 c 0.324,0 0.587,-0.263 0.587,-0.588 v -3.975 c 0,-0.323 -0.263,-0.587 -0.587,-0.587 h -4.225" style="fill:#40434a;fill-opacity:1;fill-rule:nonzero;stroke:none" id="path1423" />
        <path d="m 34.205,62.15 c -0.324,0 -0.588,0.264 -0.588,0.587 v 3.975 c 0,0.325 0.264,0.588 0.588,0.588 h 4.225 c 0.324,0 0.587,-0.263 0.587,-0.588 v -3.975 c 0,-0.323 -0.263,-0.587 -0.587,-0.587 h -4.225" style="fill:#40434a;fill-opacity:1;fill-rule:nonzero;stroke:none" id="path1427" />
        <path d="m 40.278,62.15 c -0.324,0 -0.588,0.264 -0.588,0.587 v 3.975 c 0,0.325 0.264,0.588 0.588,0.588 h 4.225 c 0.324,0 0.587,-0.263 0.587,-0.588 v -3.975 c 0,-0.323 -0.263,-0.587 -0.587,-0.587 h -4.225" style="fill:#40434a;fill-opacity:1;fill-rule:nonzero;stroke:none" id="path1431" />
        <path d="m 46.351,62.15 c -0.324,0 -0.587,0.264 -0.587,0.587 v 3.975 c 0,0.325 0.263,0.588 0.587,0.588 h 4.225 c 0.324,0 0.587,-0.263 0.587,-0.588 v -3.975 c 0,-0.323 -0.263,-0.587 -0.587,-0.587 h -4.225" style="fill:#40434a;fill-opacity:1;fill-rule:nonzero;stroke:none" id="path1435" />
        <path d="m 52.424,62.15 c -0.324,0 -0.587,0.264 -0.587,0.587 v 3.975 c 0,0.325 0.263,0.588 0.587,0.588 h 4.225 c 0.324,0 0.587,-0.263 0.587,-0.588 v -3.975 c 0,-0.323 -0.263,-0.587 -0.587,-0.587 h -4.225" style="fill:#40434a;fill-opacity:1;fill-rule:nonzero;stroke:none" id="path1439" />
        <path d="m 58.497,62.15 c -0.324,0 -0.588,0.264 -0.588,0.587 v 3.975 c 0,0.325 0.264,0.588 0.588,0.588 h 4.225 c 0.324,0 0.588,-0.263 0.588,-0.588 v -3.975 c 0,-0.323 -0.264,-0.587 -0.588,-0.587 h -4.225" style="fill:#40434a;fill-opacity:1;fill-rule:nonzero;stroke:none" id="path1443" />
        <path d="m 64.57,62.15 c -0.324,0 -0.588,0.264 -0.588,0.587 v 3.975 c 0,0.325 0.264,0.588 0.588,0.588 h 4.225 c 0.324,0 0.588,-0.263 0.588,-0.588 v -3.975 c 0,-0.323 -0.264,-0.587 -0.588,-0.587 H 64.57" style="fill:#40434a;fill-opacity:1;fill-rule:nonzero;stroke:none" id="path1447" />
        <path d="m 70.644,62.15 c -0.325,0 -0.588,0.264 -0.588,0.587 v 3.975 c 0,0.325 0.263,0.588 0.588,0.588 h 4.224 c 0.324,0 0.588,-0.263 0.588,-0.588 v -3.975 c 0,-0.323 -0.264,-0.587 -0.588,-0.587 h -4.224" style="fill:#40434a;fill-opacity:1;fill-rule:nonzero;stroke:none" id="path1451" />
        <path d="m 76.717,62.15 c -0.324,0 -0.588,0.264 -0.588,0.587 v 3.975 c 0,0.325 0.264,0.588 0.588,0.588 h 4.224 c 0.325,0 0.588,-0.263 0.588,-0.588 v -3.975 c 0,-0.323 -0.263,-0.587 -0.588,-0.587 h -4.224" style="fill:#40434a;fill-opacity:1;fill-rule:nonzero;stroke:none" id="path1455" />
        <path d="m 82.789,62.15 c -0.323,0 -0.587,0.264 -0.587,0.587 v 3.975 c 0,0.325 0.264,0.588 0.587,0.588 h 4.226 c 0.323,0 0.587,-0.263 0.587,-0.588 v -3.975 c 0,-0.323 -0.264,-0.587 -0.587,-0.587 h -4.226" style="fill:#40434a;fill-opacity:1;fill-rule:nonzero;stroke:none" id="path1459" />
        <path d="m 88.862,62.15 c -0.324,0 -0.587,0.264 -0.587,0.587 v 3.975 c 0,0.325 0.263,0.588 0.587,0.588 h 4.226 c 0.323,0 0.587,-0.263 0.587,-0.588 v -3.975 c 0,-0.323 -0.264,-0.587 -0.587,-0.587 h -4.226" style="fill:#40434a;fill-opacity:1;fill-rule:nonzero;stroke:none" id="path1463" />
        <path d="m 15.985,62.15 c -0.323,0 -0.587,0.264 -0.587,0.587 v 3.975 c 0,0.325 0.264,0.588 0.587,0.588 h 4.225 c 0.325,0 0.588,-0.263 0.588,-0.588 v -3.975 c 0,-0.323 -0.263,-0.587 -0.588,-0.587 h -4.225" style="fill:#40434a;fill-opacity:1;fill-rule:nonzero;stroke:none" id="path1467" />
        <path d="m 6.862,62.15 c -0.323,0 -0.587,0.264 -0.587,0.587 v 3.975 c 0,0.325 0.264,0.588 0.587,0.588 h 7.276 c 0.323,0 0.587,-0.263 0.587,-0.588 v -3.975 c 0,-0.323 -0.264,-0.587 -0.587,-0.587 H 6.862" style="fill:#40434a;fill-opacity:1;fill-rule:nonzero;stroke:none" id="path1471" />
        <path d="m 19.009,56.23 c -0.324,0 -0.588,0.264 -0.588,0.587 v 3.975 c 0,0.324 0.264,0.588 0.588,0.588 h 4.225 c 0.324,0 0.587,-0.264 0.587,-0.588 v -3.975 c 0,-0.323 -0.263,-0.587 -0.587,-0.587 h -4.225" style="fill:#40434a;fill-opacity:1;fill-rule:nonzero;stroke:none" id="path1475" />
        <path d="m 25.082,56.23 c -0.324,0 -0.588,0.264 -0.588,0.587 v 3.975 c 0,0.324 0.264,0.588 0.588,0.588 h 4.225 c 0.324,0 0.587,-0.264 0.587,-0.588 v -3.975 c 0,-0.323 -0.263,-0.587 -0.587,-0.587 h -4.225" style="fill:#40434a;fill-opacity:1;fill-rule:nonzero;stroke:none" id="path1479" />
        <path d="m 31.155,56.23 c -0.324,0 -0.588,0.264 -0.588,0.587 v 3.975 c 0,0.324 0.264,0.588 0.588,0.588 h 4.225 c 0.324,0 0.587,-0.264 0.587,-0.588 v -3.975 c 0,-0.323 -0.263,-0.587 -0.587,-0.587 h -4.225" style="fill:#40434a;fill-opacity:1;fill-rule:nonzero;stroke:none" id="path1483" />
        <path d="m 37.228,56.23 c -0.324,0 -0.587,0.264 -0.587,0.587 v 3.975 c 0,0.324 0.263,0.588 0.587,0.588 h 4.225 c 0.324,0 0.588,-0.264 0.588,-0.588 v -3.975 c 0,-0.323 -0.264,-0.587 -0.588,-0.587 h -4.225" style="fill:#40434a;fill-opacity:1;fill-rule:nonzero;stroke:none" id="path1487" />
        <path d="m 43.301,56.23 c -0.324,0 -0.588,0.264 -0.588,0.587 v 3.975 c 0,0.324 0.264,0.588 0.588,0.588 h 4.225 c 0.324,0 0.587,-0.264 0.587,-0.588 v -3.975 c 0,-0.323 -0.263,-0.587 -0.587,-0.587 h -4.225" style="fill:#40434a;fill-opacity:1;fill-rule:nonzero;stroke:none" id="path1491" />
        <path d="m 49.374,56.23 c -0.324,0 -0.587,0.264 -0.587,0.587 v 3.975 c 0,0.324 0.263,0.588 0.587,0.588 h 4.225 c 0.324,0 0.588,-0.264 0.588,-0.588 v -3.975 c 0,-0.323 -0.264,-0.587 -0.588,-0.587 h -4.225" style="fill:#40434a;fill-opacity:1;fill-rule:nonzero;stroke:none" id="path1495" />
        <path d="m 55.447,56.23 c -0.324,0 -0.588,0.264 -0.588,0.587 v 3.975 c 0,0.324 0.264,0.588 0.588,0.588 h 4.225 c 0.324,0 0.588,-0.264 0.588,-0.588 v -3.975 c 0,-0.323 -0.264,-0.587 -0.588,-0.587 h -4.225" style="fill:#40434a;fill-opacity:1;fill-rule:nonzero;stroke:none" id="path1499" />
        <path d="m 61.521,56.23 c -0.325,0 -0.588,0.264 -0.588,0.587 v 3.975 c 0,0.324 0.263,0.588 0.588,0.588 h 4.224 c 0.324,0 0.588,-0.264 0.588,-0.588 v -3.975 c 0,-0.323 -0.264,-0.587 -0.588,-0.587 h -4.224" style="fill:#40434a;fill-opacity:1;fill-rule:nonzero;stroke:none" id="path1503" />
        <path d="m 67.594,56.23 c -0.324,0 -0.588,0.264 -0.588,0.587 v 3.975 c 0,0.324 0.264,0.588 0.588,0.588 h 4.224 c 0.325,0 0.588,-0.264 0.588,-0.588 v -3.975 c 0,-0.323 -0.263,-0.587 -0.588,-0.587 h -4.224" style="fill:#40434a;fill-opacity:1;fill-rule:nonzero;stroke:none" id="path1507" />
        <path d="m 73.666,56.23 c -0.323,0 -0.587,0.264 -0.587,0.587 v 3.975 c 0,0.324 0.264,0.588 0.587,0.588 h 4.226 c 0.323,0 0.587,-0.264 0.587,-0.588 v -3.975 c 0,-0.323 -0.264,-0.587 -0.587,-0.587 h -4.226" style="fill:#40434a;fill-opacity:1;fill-rule:nonzero;stroke:none" id="path1511" />
        <path d="m 79.739,56.23 c -0.324,0 -0.587,0.264 -0.587,0.587 v 3.975 c 0,0.324 0.263,0.588 0.587,0.588 h 4.226 c 0.323,0 0.587,-0.264 0.587,-0.588 v -3.975 c 0,-0.323 -0.264,-0.587 -0.587,-0.587 h -4.226" style="fill:#40434a;fill-opacity:1;fill-rule:nonzero;stroke:none" id="path1515" />
        <path d="m 85.813,56.23 c -0.325,0 -0.588,0.264 -0.588,0.587 v 3.975 c 0,0.324 0.263,0.588 0.588,0.588 h 7.275 c 0.323,0 0.587,-0.264 0.587,-0.588 v -3.975 c 0,-0.323 -0.264,-0.587 -0.587,-0.587 h -7.275" style="fill:#40434a;fill-opacity:1;fill-rule:nonzero;stroke:none" id="path1519" />
        <path d="m 12.936,56.23 c -0.324,0 -0.588,0.264 -0.588,0.587 v 3.975 c 0,0.324 0.264,0.588 0.588,0.588 h 4.225 c 0.323,0 0.587,-0.264 0.587,-0.588 v -3.975 c 0,-0.323 -0.264,-0.587 -0.587,-0.587 h -4.225" style="fill:#40434a;fill-opacity:1;fill-rule:nonzero;stroke:none" id="path1523" />
        <path d="m 6.862,56.23 c -0.323,0 -0.587,0.264 -0.587,0.587 v 3.975 c 0,0.324 0.264,0.588 0.587,0.588 h 4.225 c 0.325,0 0.588,-0.264 0.588,-0.588 v -3.975 c 0,-0.323 -0.263,-0.587 -0.588,-0.587 H 6.862" style="fill:#40434a;fill-opacity:1;fill-rule:nonzero;stroke:none" id="path1527" />
        <path d="m 23.559,44.39 c -0.324,0 -0.588,0.263 -0.588,0.588 v 3.974 c 0,0.324 0.264,0.588 0.588,0.588 h 4.225 c 0.323,0 0.587,-0.264 0.587,-0.588 v -3.974 c 0,-0.325 -0.264,-0.588 -0.587,-0.588 h -4.225" style="fill:#40434a;fill-opacity:1;fill-rule:nonzero;stroke:none" id="path1531" />
        <path d="m 29.632,44.39 c -0.324,0 -0.588,0.263 -0.588,0.588 v 3.974 c 0,0.324 0.264,0.588 0.588,0.588 h 4.225 c 0.324,0 0.587,-0.264 0.587,-0.588 v -3.974 c 0,-0.325 -0.263,-0.588 -0.587,-0.588 h -4.225" style="fill:#40434a;fill-opacity:1;fill-rule:nonzero;stroke:none" id="path1535" />
        <path d="m 35.705,44.39 c -0.324,0 -0.588,0.263 -0.588,0.588 v 3.974 c 0,0.324 0.264,0.588 0.588,0.588 h 4.225 c 0.324,0 0.587,-0.264 0.587,-0.588 v -3.974 c 0,-0.325 -0.263,-0.588 -0.587,-0.588 h -4.225" style="fill:#40434a;fill-opacity:1;fill-rule:nonzero;stroke:none" id="path1539" />
        <path d="m 41.778,44.39 c -0.324,0 -0.588,0.263 -0.588,0.588 v 3.974 c 0,0.324 0.264,0.588 0.588,0.588 h 4.225 c 0.324,0 0.587,-0.264 0.587,-0.588 v -3.974 c 0,-0.325 -0.263,-0.588 -0.587,-0.588 h -4.225" style="fill:#40434a;fill-opacity:1;fill-rule:nonzero;stroke:none" id="path1543" />
        <path d="m 47.851,44.39 c -0.324,0 -0.587,0.263 -0.587,0.588 v 3.974 c 0,0.324 0.263,0.588 0.587,0.588 h 4.225 c 0.324,0 0.587,-0.264 0.587,-0.588 v -3.974 c 0,-0.325 -0.263,-0.588 -0.587,-0.588 h -4.225" style="fill:#40434a;fill-opacity:1;fill-rule:nonzero;stroke:none" id="path1547" />
        <path d="m 53.924,44.39 c -0.324,0 -0.587,0.263 -0.587,0.588 v 3.974 c 0,0.324 0.263,0.588 0.587,0.588 h 4.225 c 0.324,0 0.587,-0.264 0.587,-0.588 v -3.974 c 0,-0.325 -0.263,-0.588 -0.587,-0.588 h -4.225" style="fill:#40434a;fill-opacity:1;fill-rule:nonzero;stroke:none" id="path1551" />
        <path d="m 59.997,44.39 c -0.324,0 -0.588,0.263 -0.588,0.588 v 3.974 c 0,0.324 0.264,0.588 0.588,0.588 h 4.225 c 0.324,0 0.588,-0.264 0.588,-0.588 v -3.974 c 0,-0.325 -0.264,-0.588 -0.588,-0.588 h -4.225" style="fill:#40434a;fill-opacity:1;fill-rule:nonzero;stroke:none" id="path1555" />
        <path d="m 66.07,44.39 c -0.324,0 -0.588,0.263 -0.588,0.588 v 3.974 c 0,0.324 0.264,0.588 0.588,0.588 h 4.225 c 0.324,0 0.588,-0.264 0.588,-0.588 v -3.974 c 0,-0.325 -0.264,-0.588 -0.588,-0.588 H 66.07" style="fill:#40434a;fill-opacity:1;fill-rule:nonzero;stroke:none" id="path1559" />
        <path d="m 72.144,44.39 c -0.325,0 -0.588,0.263 -0.588,0.588 v 3.974 c 0,0.324 0.263,0.588 0.588,0.588 h 4.224 c 0.324,0 0.588,-0.264 0.588,-0.588 v -3.974 c 0,-0.325 -0.264,-0.588 -0.588,-0.588 h -4.224" style="fill:#40434a;fill-opacity:1;fill-rule:nonzero;stroke:none" id="path1563" />
        <path d="m 78.217,44.39 c -0.324,0 -0.588,0.263 -0.588,0.588 v 3.974 c 0,0.324 0.264,0.588 0.588,0.588 h 4.224 c 0.325,0 0.588,-0.264 0.588,-0.588 v -3.974 c 0,-0.325 -0.263,-0.588 -0.588,-0.588 h -4.224" style="fill:#40434a;fill-opacity:1;fill-rule:nonzero;stroke:none" id="path1567" />
        <path d="m 84.289,44.39 c -0.323,0 -0.587,0.263 -0.587,0.588 v 3.974 c 0,0.324 0.264,0.588 0.587,0.588 h 8.775 c 0.325,0 0.588,-0.264 0.588,-0.588 v -3.974 c 0,-0.325 -0.263,-0.588 -0.588,-0.588 h -8.775" style="fill:#40434a;fill-opacity:1;fill-rule:nonzero;stroke:none" id="path1571" />
        <path d="m 17.485,44.39 c -0.323,0 -0.587,0.263 -0.587,0.588 v 3.974 c 0,0.324 0.264,0.588 0.587,0.588 h 4.225 c 0.325,0 0.588,-0.264 0.588,-0.588 v -3.974 c 0,-0.325 -0.263,-0.588 -0.588,-0.588 h -4.225" style="fill:#40434a;fill-opacity:1;fill-rule:nonzero;stroke:none" id="path1575" />
        <path d="m 6.862,44.39 c -0.323,0 -0.587,0.263 -0.587,0.588 v 3.974 c 0,0.324 0.264,0.588 0.587,0.588 h 8.776 c 0.323,0 0.587,-0.264 0.587,-0.588 v -3.974 c 0,-0.325 -0.264,-0.588 -0.587,-0.588 H 6.862" style="fill:#40434a;fill-opacity:1;fill-rule:nonzero;stroke:none" id="path1579" />
        <path d="m 20.559,38.47 c -0.324,0 -0.588,0.263 -0.588,0.588 v 3.974 c 0,0.324 0.264,0.588 0.588,0.588 h 4.225 c 0.323,0 0.587,-0.264 0.587,-0.588 v -3.974 c 0,-0.325 -0.264,-0.588 -0.587,-0.588 h -4.225" style="fill:#40434a;fill-opacity:1;fill-rule:nonzero;stroke:none" id="path1583" />
        <path d="m 26.632,38.47 c -0.324,0 -0.588,0.263 -0.588,0.588 v 3.974 c 0,0.324 0.264,0.588 0.588,0.588 h 4.225 c 0.324,0 0.587,-0.264 0.587,-0.588 v -3.974 c 0,-0.325 -0.263,-0.588 -0.587,-0.588 h -4.225" style="fill:#40434a;fill-opacity:1;fill-rule:nonzero;stroke:none" id="path1587" />
        <path d="m 32.705,38.47 c -0.324,0 -0.588,0.263 -0.588,0.588 v 3.974 c 0,0.324 0.264,0.588 0.588,0.588 h 4.225 c 0.324,0 0.587,-0.264 0.587,-0.588 v -3.974 c 0,-0.325 -0.263,-0.588 -0.587,-0.588 h -4.225" style="fill:#40434a;fill-opacity:1;fill-rule:nonzero;stroke:none" id="path1591" />
        <path d="m 38.778,38.47 c -0.324,0 -0.588,0.263 -0.588,0.588 v 3.974 c 0,0.324 0.264,0.588 0.588,0.588 h 4.225 c 0.324,0 0.587,-0.264 0.587,-0.588 v -3.974 c 0,-0.325 -0.263,-0.588 -0.587,-0.588 h -4.225" style="fill:#40434a;fill-opacity:1;fill-rule:nonzero;stroke:none" id="path1595" />
        <path d="m 44.851,38.47 c -0.324,0 -0.587,0.263 -0.587,0.588 v 3.974 c 0,0.324 0.263,0.588 0.587,0.588 h 4.225 c 0.324,0 0.588,-0.264 0.588,-0.588 v -3.974 c 0,-0.325 -0.264,-0.588 -0.588,-0.588 h -4.225" style="fill:#40434a;fill-opacity:1;fill-rule:nonzero;stroke:none" id="path1599" />
        <path d="m 50.924,38.47 c -0.324,0 -0.588,0.263 -0.588,0.588 v 3.974 c 0,0.324 0.264,0.588 0.588,0.588 h 4.225 c 0.324,0 0.587,-0.264 0.587,-0.588 v -3.974 c 0,-0.325 -0.263,-0.588 -0.587,-0.588 h -4.225" style="fill:#40434a;fill-opacity:1;fill-rule:nonzero;stroke:none" id="path1603" />
        <path d="m 56.997,38.47 c -0.324,0 -0.588,0.263 -0.588,0.588 v 3.974 c 0,0.324 0.264,0.588 0.588,0.588 h 4.225 c 0.324,0 0.588,-0.264 0.588,-0.588 v -3.974 c 0,-0.325 -0.264,-0.588 -0.588,-0.588 h -4.225" style="fill:#40434a;fill-opacity:1;fill-rule:nonzero;stroke:none" id="path1607" />
        <path d="m 63.07,38.47 c -0.324,0 -0.588,0.263 -0.588,0.588 v 3.974 c 0,0.324 0.264,0.588 0.588,0.588 h 4.225 c 0.324,0 0.588,-0.264 0.588,-0.588 v -3.974 c 0,-0.325 -0.264,-0.588 -0.588,-0.588 H 63.07" style="fill:#40434a;fill-opacity:1;fill-rule:nonzero;stroke:none" id="path1611" />
        <path d="m 69.144,38.47 c -0.325,0 -0.588,0.263 -0.588,0.588 v 3.974 c 0,0.324 0.263,0.588 0.588,0.588 h 4.224 c 0.324,0 0.588,-0.264 0.588,-0.588 v -3.974 c 0,-0.325 -0.264,-0.588 -0.588,-0.588 h -4.224" style="fill:#40434a;fill-opacity:1;fill-rule:nonzero;stroke:none" id="path1615" />
        <path d="m 75.217,38.47 c -0.324,0 -0.588,0.263 -0.588,0.588 v 3.974 c 0,0.324 0.264,0.588 0.588,0.588 h 4.224 c 0.325,0 0.588,-0.264 0.588,-0.588 v -3.974 c 0,-0.325 -0.263,-0.588 -0.588,-0.588 h -4.224" style="fill:#40434a;fill-opacity:1;fill-rule:nonzero;stroke:none" id="path1619" />
        <path d="m 81.289,38.47 c -0.323,0 -0.587,0.263 -0.587,0.588 v 3.974 c 0,0.324 0.264,0.588 0.587,0.588 h 11.775 c 0.325,0 0.588,-0.264 0.588,-0.588 v -3.974 c 0,-0.325 -0.263,-0.588 -0.588,-0.588 H 81.289" style="fill:#40434a;fill-opacity:1;fill-rule:nonzero;stroke:none" id="path1623" />
        <path d="m 6.886,38.47 c -0.324,0 -0.588,0.263 -0.588,0.588 v 3.974 c 0,0.324 0.264,0.588 0.588,0.588 H 18.71 c 0.325,0 0.588,-0.264 0.588,-0.588 v -3.974 c 0,-0.325 -0.263,-0.588 -0.588,-0.588 H 6.886" style="fill:#40434a;fill-opacity:1;fill-rule:nonzero;stroke:none" id="path1627" />
        <path d="m 19.009,32.55 c -0.324,0 -0.588,0.263 -0.588,0.588 v 3.974 c 0,0.325 0.264,0.588 0.588,0.588 h 4.225 c 0.324,0 0.587,-0.263 0.587,-0.588 v -3.974 c 0,-0.325 -0.263,-0.588 -0.587,-0.588 h -4.225" style="fill:#40434a;fill-opacity:1;fill-rule:nonzero;stroke:none" id="path1631" />
        <path d="m 25.082,32.55 c -0.324,0 -0.588,0.263 -0.588,0.588 v 3.974 c 0,0.325 0.264,0.588 0.588,0.588 h 5.775 c 0.324,0 0.587,-0.263 0.587,-0.588 v -3.974 c 0,-0.325 -0.263,-0.588 -0.587,-0.588 h -5.775" style="fill:#40434a;fill-opacity:1;fill-rule:nonzero;stroke:none" id="path1635" />
        <path d="m 32.712,32.55 c -0.323,0 -0.587,0.263 -0.587,0.588 v 3.974 c 0,0.325 0.264,0.588 0.587,0.588 h 28.525 c 0.325,0 0.588,-0.263 0.588,-0.588 v -3.974 c 0,-0.325 -0.263,-0.588 -0.588,-0.588 H 32.712" style="fill:#40434a;fill-opacity:1;fill-rule:nonzero;stroke:none" id="path1639" />
        <path d="m 63.086,32.55 c -0.324,0 -0.588,0.263 -0.588,0.588 v 3.974 c 0,0.325 0.264,0.588 0.588,0.588 h 5.709 c 0.324,0 0.588,-0.263 0.588,-0.588 v -3.974 c 0,-0.325 -0.264,-0.588 -0.588,-0.588 h -5.709" style="fill:#40434a;fill-opacity:1;fill-rule:nonzero;stroke:none" id="path1643" />
        <path d="m 70.644,32.55 c -0.325,0 -0.588,0.263 -0.588,0.588 v 3.974 c 0,0.325 0.263,0.588 0.588,0.588 h 4.224 c 0.324,0 0.588,-0.263 0.588,-0.588 v -3.974 c 0,-0.325 -0.264,-0.588 -0.588,-0.588 h -4.224" style="fill:#40434a;fill-opacity:1;fill-rule:nonzero;stroke:none" id="path1647" />
        <path d="m 76.717,32.55 c -0.324,0 -0.588,0.263 -0.588,0.588 v 3.974 c 0,0.325 0.264,0.588 0.588,0.588 h 4.224 c 0.325,0 0.588,-0.263 0.588,-0.588 v -3.974 c 0,-0.325 -0.263,-0.588 -0.588,-0.588 h -4.224" style="fill:#40434a;fill-opacity:1;fill-rule:nonzero;stroke:none" id="path1651" />
        <path d="m 88.862,32.55 c -0.324,0 -0.587,0.263 -0.587,0.588 v 3.974 c 0,0.325 0.263,0.588 0.587,0.588 h 4.226 c 0.323,0 0.587,-0.263 0.587,-0.588 v -3.974 c 0,-0.325 -0.264,-0.588 -0.587,-0.588 h -4.226" style="fill:#40434a;fill-opacity:1;fill-rule:nonzero;stroke:none" id="path1655" />
        <path d="m 12.936,32.55 c -0.324,0 -0.588,0.263 -0.588,0.588 v 3.974 c 0,0.325 0.264,0.588 0.588,0.588 h 4.225 c 0.323,0 0.587,-0.263 0.587,-0.588 v -3.974 c 0,-0.325 -0.264,-0.588 -0.587,-0.588 h -4.225" style="fill:#40434a;fill-opacity:1;fill-rule:nonzero;stroke:none" id="path1659" />
        <path d="m 6.862,32.55 c -0.323,0 -0.587,0.263 -0.587,0.588 v 3.974 c 0,0.325 0.264,0.588 0.587,0.588 h 4.225 c 0.325,0 0.588,-0.263 0.588,-0.588 v -3.974 c 0,-0.325 -0.263,-0.588 -0.588,-0.588 H 6.862" style="fill:#40434a;fill-opacity:1;fill-rule:nonzero;stroke:none" id="path1663" />
        <path d="m 82.789,32.55 c -0.323,0 -0.587,0.263 -0.587,0.588 v 3.974 c 0,0.325 0.264,0.588 0.587,0.588 h 4.226 c 0.323,0 0.587,-0.263 0.587,-0.588 v -3.974 c 0,-0.325 -0.264,-0.588 -0.587,-0.588 h -4.226" style="fill:#40434a;fill-opacity:1;fill-rule:nonzero;stroke:none" id="path1667" />
      </g>
    </g>
  </g>
</svg>
